<svg xmlns="http://www.w3.org/2000/svg" xmlns:xlink="http://www.w3.org/1999/xlink" viewBox="0 0 430 430" width="430" height="430" preserveAspectRatio="xMidYMid meet" style="width: 100%; height: 100%; transform: translate3d(0px, 0px, 0px); content-visibility: visible;"><defs><clipPath id="__lottie_element_488"><rect width="430" height="430" x="0" y="0"/></clipPath><clipPath id="__lottie_element_490"><path d="M0,0 L430,0 L430,430 L0,430z"/></clipPath></defs><g clip-path="url(#__lottie_element_488)"><g clip-path="url(#__lottie_element_490)" transform="matrix(1,0,0,1,0,0)" opacity="1" style="display: block;"><g transform="matrix(1,0,0,1,215,215)" opacity="1" style="display: block;"><g opacity="1" transform="matrix(1,0,0,1,0,0)"><path stroke-linecap="round" stroke-linejoin="round" fill-opacity="0" class="primary" stroke="rgb(18,19,49)" stroke-opacity="1" stroke-width="12" d=" M124.35099792480469,-101.04100036621094 C94.9739990234375,-137.15199279785156 50.180999755859375,-160.2209930419922 0,-160.2209930419922 C-88.48799896240234,-160.2209930419922 -160.2209930419922,-88.48799896240234 -160.2209930419922,0 C-160.2209930419922,88.48799896240234 -88.48799896240234,160.2209930419922 0,160.2209930419922 C88.48799896240234,160.2209930419922 160.2209930419922,88.48799896240234 160.2209930419922,0 C160.2209930419922,0 160.2209930419922,0 160.2209930419922,0 C160.2209930419922,-29.64299964904785 152.17100524902344,-57.40700149536133 138.13699340820312,-81.22200012207031"/></g></g><g transform="matrix(3.7300000190734863,0,0,3.7300000190734863,215,215)" opacity="1" style="display: block;"><g opacity="1" transform="matrix(1,0,0,1,0,0)"><path stroke-linecap="round" stroke-linejoin="round" fill-opacity="0" class="secondary" stroke="rgb(8,168,138)" stroke-opacity="1" stroke-width="3.29" d=" M-16.104999542236328,13.069999694824219 C-12.684000015258789,16.426000595092773 -10.314000129699707,18.729999542236328 -10.314000129699707,18.729999542236328 C-10.314000129699707,18.729999542236328 15.659000396728516,-5.394000053405762 27.320999145507812,-17.597999572753906 C31.166000366210938,-21.621999740600586 30.163000106811523,-27.514999389648438 29.288999557495117,-30.523000717163086"/></g></g></g></g></svg>